<svg width="500" height="341" viewBox="0 0 500 341" fill="none" xmlns="http://www.w3.org/2000/svg">
<g clip-path="url(#clip0)">
<path d="M419.85 0H0V225.771H419.85V0Z" fill="#007BFE"/>
<path d="M79.6012 31.83H75.8988V37.7518H79.6012V31.83Z" fill="white"/>
<path d="M92.1893 30.3495H88.4869V36.2714H92.1893V30.3495Z" fill="white"/>
<path d="M98.8536 30.3495H95.1512V36.2714H98.8536V30.3495Z" fill="white"/>
<path d="M98.8536 48.1151H95.1512V54.0369H98.8536V48.1151Z" fill="white"/>
<path d="M106.258 39.2323H102.556V45.1542H106.258V39.2323Z" fill="white"/>
<path d="M106.258 48.8553H102.556V54.7772H106.258V48.8553Z" fill="white"/>
<path d="M98.8536 67.3611H95.1512V73.283H98.8536V67.3611Z" fill="white"/>
<path d="M106.258 76.9841H102.556V82.906H106.258V76.9841Z" fill="white"/>
<path d="M98.8536 113.256H95.1512V119.177H98.8536V113.256Z" fill="white"/>
<path d="M92.1893 76.9841H88.4869V82.906H92.1893V76.9841Z" fill="white"/>
<path d="M79.6012 41.453H75.8988V47.3749H79.6012V41.453Z" fill="white"/>
<path d="M79.6012 133.982H75.8988V139.904H79.6012V133.982Z" fill="white"/>
<path d="M79.6012 153.228H75.8988V159.15H79.6012V153.228Z" fill="white"/>
<path d="M79.6012 162.851H75.8988V168.773H79.6012V162.851Z" fill="white"/>
<path d="M79.6012 51.8162H74.4178V52.5565H79.6012V51.8162Z" fill="white"/>
<path d="M99.594 60.699H94.4107V61.4393H99.594V60.699Z" fill="white"/>
<path d="M79.6012 99.1911H74.4178V99.9313H79.6012V99.1911Z" fill="white"/>
<path d="M79.6012 107.334H74.4178V108.074H79.6012V107.334Z" fill="white"/>
<path d="M99.594 154.708H94.4107V155.449H99.594V154.708Z" fill="white"/>
<path d="M93.6702 172.474H88.4869V173.214H93.6702V172.474Z" fill="white"/>
<path d="M75.8988 58.4785V59.9588H77.3795V62.9198H75.8988V64.4001H79.6011V58.4785H75.8988Z" fill="white"/>
<path d="M88.4871 48.1153V49.5955H89.9678V52.5565H88.4871V54.0368H92.1894V48.1153H88.4871Z" fill="white"/>
<path d="M102.556 57.7379V59.2187H104.037V62.1797H102.556V63.66H106.258V57.7379H102.556Z" fill="white"/>
<path d="M102.556 86.6074V88.0876H104.037V91.0486H102.556V92.5289H106.258V86.6074H102.556Z" fill="white"/>
<path d="M102.556 96.23V97.7108H104.037V100.672H102.556V102.152H106.258V96.23H102.556Z" fill="white"/>
<path d="M102.556 66.6209V68.1012H104.037V71.0622H102.556V72.543H106.258V66.6209H102.556Z" fill="white"/>
<path d="M95.1509 39.2322V40.713H96.6322V43.6735H95.1509V45.1542H98.8538V39.2322H95.1509Z" fill="white"/>
<path d="M98.8536 86.6072H95.1512V92.529H98.8536V86.6072Z" fill="white"/>
<path d="M98.8536 104.373H95.1512V110.295H98.8536V104.373Z" fill="white"/>
<path d="M95.1509 95.4899V96.9702H96.6322V99.9312H95.1509V101.412H98.8538V95.4899H95.1509Z" fill="white"/>
<path d="M88.4871 57.7379V59.2187H89.9678V62.1797H88.4871V63.66H92.1894V57.7379H88.4871Z" fill="white"/>
<path d="M88.4871 67.3611V68.8418H89.9678V71.8023H88.4871V73.2831H92.1894V67.3611H88.4871Z" fill="white"/>
<path d="M92.1893 96.2302H88.4869V102.152H92.1893V96.2302Z" fill="white"/>
<path d="M88.4871 86.6074V88.0876H89.9678V91.0486H88.4871V92.5289H92.1894V86.6074H88.4871Z" fill="white"/>
<path d="M92.1893 115.476H88.4869V121.398H92.1893V115.476Z" fill="white"/>
<path d="M88.4871 105.853V107.333H89.9678V110.294H88.4871V111.775H92.1894V105.853H88.4871Z" fill="white"/>
<path d="M92.1893 134.722H88.4869V140.644H92.1893V134.722Z" fill="white"/>
<path d="M98.8536 133.242H95.1512V139.164H98.8536V133.242Z" fill="white"/>
<path d="M88.4871 125.099V126.58H89.9678V129.541H88.4871V131.021H92.1894V125.099H88.4871Z" fill="white"/>
<path d="M102.556 125.099V126.58H104.037V129.541H102.556V131.021H106.258V125.099H102.556Z" fill="white"/>
<path d="M144.023 39.2323H140.32V45.1542H144.023V39.2323Z" fill="white"/>
<path d="M144.023 48.8553H140.32V54.7772H144.023V48.8553Z" fill="white"/>
<path d="M144.023 76.9841H140.32V82.906H144.023V76.9841Z" fill="white"/>
<path d="M140.32 57.7379V59.2187H141.801V62.1797H140.32V63.66H144.022V57.7379H140.32Z" fill="white"/>
<path d="M140.32 86.6074V88.0876H141.801V91.0486H140.32V92.5289H144.022V86.6074H140.32Z" fill="white"/>
<path d="M140.32 96.23V97.7108H141.801V100.672H140.32V102.152H144.022V96.23H140.32Z" fill="white"/>
<path d="M140.32 66.6209V68.1012H141.801V71.0622H140.32V72.543H144.022V66.6209H140.32Z" fill="white"/>
<path d="M140.32 125.099V126.58H141.801V129.541H140.32V131.021H144.022V125.099H140.32Z" fill="white"/>
<path d="M92.1893 153.968H88.4869V159.89H92.1893V153.968Z" fill="white"/>
<path d="M98.8536 142.865H95.1512V148.787H98.8536V142.865Z" fill="white"/>
<path d="M92.1893 179.136H88.4869V185.058H92.1893V179.136Z" fill="white"/>
<path d="M98.8536 161.371H95.1512V167.292H98.8536V161.371Z" fill="white"/>
<path d="M88.4871 144.345V145.826H89.9678V148.787H88.4871V150.267H92.1894V144.345H88.4871Z" fill="white"/>
<path d="M88.4871 189.5V190.98H89.9678V193.941H88.4871V195.421H92.1894V189.5H88.4871Z" fill="white"/>
<path d="M132.915 30.3495H129.213V36.2714H132.915V30.3495Z" fill="white"/>
<path d="M132.915 76.9841H129.213V82.906H132.915V76.9841Z" fill="white"/>
<path d="M134.396 172.474H129.213V173.214H134.396V172.474Z" fill="white"/>
<path d="M129.213 48.1153V49.5955H130.694V52.5565H129.213V54.0368H132.915V48.1153H129.213Z" fill="white"/>
<path d="M129.213 57.7379V59.2187H130.694V62.1797H129.213V63.66H132.915V57.7379H129.213Z" fill="white"/>
<path d="M129.213 67.3611V68.8418H130.694V71.8023H129.213V73.2831H132.915V67.3611H129.213Z" fill="white"/>
<path d="M132.915 96.2302H129.213V102.152H132.915V96.2302Z" fill="white"/>
<path d="M129.213 86.6074V88.0876H130.694V91.0486H129.213V92.5289H132.915V86.6074H129.213Z" fill="white"/>
<path d="M132.915 115.476H129.213V121.398H132.915V115.476Z" fill="white"/>
<path d="M129.213 105.853V107.333H130.694V110.294H129.213V111.775H132.915V105.853H129.213Z" fill="white"/>
<path d="M132.915 134.722H129.213V140.644H132.915V134.722Z" fill="white"/>
<path d="M129.213 125.099V126.58H130.694V129.541H129.213V131.021H132.915V125.099H129.213Z" fill="white"/>
<path d="M132.915 153.968H129.213V159.89H132.915V153.968Z" fill="white"/>
<path d="M132.915 179.136H129.213V185.058H132.915V179.136Z" fill="white"/>
<path d="M129.213 144.345V145.826H130.694V148.787H129.213V150.267H132.915V144.345H129.213Z" fill="white"/>
<path d="M129.213 189.5V190.98H130.694V193.941H129.213V195.421H132.915V189.5H129.213Z" fill="white"/>
<path d="M150.687 30.3495H146.984V36.2714H150.687V30.3495Z" fill="white"/>
<path d="M150.687 76.9841H146.984V82.906H150.687V76.9841Z" fill="white"/>
<path d="M152.168 172.474H146.984V173.214H152.168V172.474Z" fill="white"/>
<path d="M146.984 48.1153V49.5955H148.466V52.5565H146.984V54.0368H150.687V48.1153H146.984Z" fill="white"/>
<path d="M146.984 57.7379V59.2187H148.466V62.1797H146.984V63.66H150.687V57.7379H146.984Z" fill="white"/>
<path d="M146.984 67.3611V68.8418H148.466V71.8023H146.984V73.2831H150.687V67.3611H146.984Z" fill="white"/>
<path d="M150.687 96.2302H146.984V102.152H150.687V96.2302Z" fill="white"/>
<path d="M146.984 86.6074V88.0876H148.466V91.0486H146.984V92.5289H150.687V86.6074H146.984Z" fill="white"/>
<path d="M150.687 115.476H146.984V121.398H150.687V115.476Z" fill="white"/>
<path d="M146.984 105.853V107.333H148.466V110.294H146.984V111.775H150.687V105.853H146.984Z" fill="white"/>
<path d="M150.687 134.722H146.984V140.644H150.687V134.722Z" fill="white"/>
<path d="M146.984 125.099V126.58H148.466V129.541H146.984V131.021H150.687V125.099H146.984Z" fill="white"/>
<path d="M150.687 153.968H146.984V159.89H150.687V153.968Z" fill="white"/>
<path d="M150.687 179.136H146.984V185.058H150.687V179.136Z" fill="white"/>
<path d="M146.984 144.345V145.826H148.466V148.787H146.984V150.267H150.687V144.345H146.984Z" fill="white"/>
<path d="M146.984 189.5V190.98H148.466V193.941H146.984V195.421H150.687V189.5H146.984Z" fill="white"/>
<path d="M95.1509 179.136V180.617H96.6322V183.578H95.1509V185.058H98.8538V179.136H95.1509Z" fill="white"/>
<path d="M95.1509 188.759V190.24H96.6322V193.201H95.1509V194.681H98.8538V188.759H95.1509Z" fill="white"/>
<path d="M75.8988 76.9842V78.4645H77.3795V81.4255H75.8988V82.9062H79.6011V76.9842H75.8988Z" fill="white"/>
<path d="M75.8988 114.736V116.216H77.3795V119.177H75.8988V120.658H79.6011V114.736H75.8988Z" fill="white"/>
<path d="M75.8988 124.359V125.84H77.3795V128.801H75.8988V130.281H79.6011V124.359H75.8988Z" fill="white"/>
<path d="M75.8988 143.605V145.085H77.3795V148.046H75.8988V149.527H79.6011V143.605H75.8988Z" fill="white"/>
<path d="M75.8988 170.993V172.474H77.3795V175.435H75.8988V176.915H79.6011V170.993H75.8988Z" fill="white"/>
<path d="M75.8988 179.136V180.617H77.3795V183.578H75.8988V185.058H79.6011V179.136H75.8988Z" fill="white"/>
<path d="M118.106 31.83H114.404V37.7518H118.106V31.83Z" fill="white"/>
<path d="M118.106 41.453H114.404V47.3749H118.106V41.453Z" fill="white"/>
<path d="M118.106 51.8162H112.923V52.5565H118.106V51.8162Z" fill="white"/>
<path d="M118.106 99.1911H112.923V99.9313H118.106V99.1911Z" fill="white"/>
<path d="M118.106 107.334H112.923V108.074H118.106V107.334Z" fill="white"/>
<path d="M114.404 58.4785V59.9588H115.884V62.9198H114.404V64.4001H118.106V58.4785H114.404Z" fill="white"/>
<path d="M114.404 76.9842V78.4645H115.884V81.4255H114.404V82.9062H118.106V76.9842H114.404Z" fill="white"/>
<path d="M114.404 114.736V116.216H115.884V119.177H114.404V120.658H118.106V114.736H114.404Z" fill="white"/>
<path d="M160.313 96.2302H156.611V102.152H160.313V96.2302Z" fill="white"/>
<path d="M160.313 105.853H156.611V111.775H160.313V105.853Z" fill="white"/>
<path d="M160.313 116.216H155.13V116.957H160.313V116.216Z" fill="white"/>
<path d="M160.313 163.591H155.13V164.332H160.313V163.591Z" fill="white"/>
<path d="M160.313 171.734H155.13V172.474H160.313V171.734Z" fill="white"/>
<path d="M156.611 122.879V124.359H158.091V127.32H156.611V128.801H160.313V122.879H156.611Z" fill="white"/>
<path d="M156.611 141.384V142.865H158.091V145.826H156.611V147.306H160.313V141.384H156.611Z" fill="white"/>
<path d="M156.611 179.136V180.617H158.091V183.578H156.611V185.058H160.313V179.136H156.611Z" fill="white"/>
<path d="M172.161 31.83H168.458V37.7518H172.161V31.83Z" fill="white"/>
<path d="M184.749 30.3495H181.046V36.2714H184.749V30.3495Z" fill="white"/>
<path d="M191.413 30.3495H187.711V36.2714H191.413V30.3495Z" fill="white"/>
<path d="M191.413 48.1151H187.711V54.0369H191.413V48.1151Z" fill="white"/>
<path d="M198.818 39.2323H195.115V45.1542H198.818V39.2323Z" fill="white"/>
<path d="M198.818 48.8553H195.115V54.7772H198.818V48.8553Z" fill="white"/>
<path d="M191.413 67.3611H187.711V73.283H191.413V67.3611Z" fill="white"/>
<path d="M198.818 76.9841H195.115V82.906H198.818V76.9841Z" fill="white"/>
<path d="M191.413 113.256H187.711V119.177H191.413V113.256Z" fill="white"/>
<path d="M184.749 76.9841H181.046V82.906H184.749V76.9841Z" fill="white"/>
<path d="M172.161 41.453H168.458V47.3749H172.161V41.453Z" fill="white"/>
<path d="M172.161 133.982H168.458V139.904H172.161V133.982Z" fill="white"/>
<path d="M172.161 153.228H168.458V159.15H172.161V153.228Z" fill="white"/>
<path d="M172.161 162.851H168.458V168.773H172.161V162.851Z" fill="white"/>
<path d="M172.161 51.8162H166.977V52.5565H172.161V51.8162Z" fill="white"/>
<path d="M192.154 60.699H186.97V61.4393H192.154V60.699Z" fill="white"/>
<path d="M172.161 99.1911H166.977V99.9313H172.161V99.1911Z" fill="white"/>
<path d="M172.161 107.334H166.977V108.074H172.161V107.334Z" fill="white"/>
<path d="M192.154 154.708H186.97V155.449H192.154V154.708Z" fill="white"/>
<path d="M186.23 172.474H181.046V173.214H186.23V172.474Z" fill="white"/>
<path d="M168.458 58.4785V59.9588H169.939V62.9198H168.458V64.4001H172.161V58.4785H168.458Z" fill="white"/>
<path d="M181.046 48.1153V49.5955H182.527V52.5565H181.046V54.0368H184.749V48.1153H181.046Z" fill="white"/>
<path d="M195.116 57.7379V59.2187H196.596V62.1797H195.116V63.66H198.818V57.7379H195.116Z" fill="white"/>
<path d="M195.116 86.6074V88.0876H196.596V91.0486H195.116V92.5289H198.818V86.6074H195.116Z" fill="white"/>
<path d="M195.116 96.23V97.7108H196.596V100.672H195.116V102.152H198.818V96.23H195.116Z" fill="white"/>
<path d="M195.116 66.6209V68.1012H196.596V71.0622H195.116V72.543H198.818V66.6209H195.116Z" fill="white"/>
<path d="M187.711 39.2322V40.713H189.192V43.6735H187.711V45.1542H191.413V39.2322H187.711Z" fill="white"/>
<path d="M191.413 86.6072H187.711V92.529H191.413V86.6072Z" fill="white"/>
<path d="M191.413 104.373H187.711V110.295H191.413V104.373Z" fill="white"/>
<path d="M187.711 95.4899V96.9702H189.192V99.9312H187.711V101.412H191.413V95.4899H187.711Z" fill="white"/>
<path d="M181.046 57.7379V59.2187H182.527V62.1797H181.046V63.66H184.749V57.7379H181.046Z" fill="white"/>
<path d="M181.046 67.3611V68.8418H182.527V71.8023H181.046V73.2831H184.749V67.3611H181.046Z" fill="white"/>
<path d="M184.749 96.2302H181.046V102.152H184.749V96.2302Z" fill="white"/>
<path d="M181.046 86.6074V88.0876H182.527V91.0486H181.046V92.5289H184.749V86.6074H181.046Z" fill="white"/>
<path d="M184.749 115.476H181.046V121.398H184.749V115.476Z" fill="white"/>
<path d="M181.046 105.853V107.333H182.527V110.294H181.046V111.775H184.749V105.853H181.046Z" fill="white"/>
<path d="M184.749 134.722H181.046V140.644H184.749V134.722Z" fill="white"/>
<path d="M191.413 133.242H187.711V139.164H191.413V133.242Z" fill="white"/>
<path d="M181.046 125.099V126.58H182.527V129.541H181.046V131.021H184.749V125.099H181.046Z" fill="white"/>
<path d="M195.116 125.099V126.58H196.596V129.541H195.116V131.021H198.818V125.099H195.116Z" fill="white"/>
<path d="M236.582 39.2323H232.88V45.1542H236.582V39.2323Z" fill="white"/>
<path d="M236.582 48.8553H232.88V54.7772H236.582V48.8553Z" fill="white"/>
<path d="M236.582 76.9841H232.88V82.906H236.582V76.9841Z" fill="white"/>
<path d="M232.88 57.7379V59.2187H234.361V62.1797H232.88V63.66H236.582V57.7379H232.88Z" fill="white"/>
<path d="M232.88 86.6074V88.0876H234.361V91.0486H232.88V92.5289H236.582V86.6074H232.88Z" fill="white"/>
<path d="M232.88 96.23V97.7108H234.361V100.672H232.88V102.152H236.582V96.23H232.88Z" fill="white"/>
<path d="M232.88 66.6209V68.1012H234.361V71.0622H232.88V72.543H236.582V66.6209H232.88Z" fill="white"/>
<path d="M232.88 125.099V126.58H234.361V129.541H232.88V131.021H236.582V125.099H232.88Z" fill="white"/>
<path d="M184.749 153.968H181.046V159.89H184.749V153.968Z" fill="white"/>
<path d="M191.413 142.865H187.711V148.787H191.413V142.865Z" fill="white"/>
<path d="M184.749 179.136H181.046V185.058H184.749V179.136Z" fill="white"/>
<path d="M191.413 161.371H187.711V167.292H191.413V161.371Z" fill="white"/>
<path d="M181.046 144.345V145.826H182.527V148.787H181.046V150.267H184.749V144.345H181.046Z" fill="white"/>
<path d="M181.046 189.5V190.98H182.527V193.941H181.046V195.421H184.749V189.5H181.046Z" fill="white"/>
<path d="M225.475 30.3495H221.773V36.2714H225.475V30.3495Z" fill="white"/>
<path d="M225.475 76.9841H221.773V82.906H225.475V76.9841Z" fill="white"/>
<path d="M226.956 172.474H221.773V173.214H226.956V172.474Z" fill="white"/>
<path d="M221.772 48.1153V49.5955H223.254V52.5565H221.772V54.0368H225.475V48.1153H221.772Z" fill="white"/>
<path d="M221.772 57.7379V59.2187H223.254V62.1797H221.772V63.66H225.475V57.7379H221.772Z" fill="white"/>
<path d="M221.772 67.3611V68.8418H223.254V71.8023H221.772V73.2831H225.475V67.3611H221.772Z" fill="white"/>
<path d="M225.475 96.2302H221.773V102.152H225.475V96.2302Z" fill="white"/>
<path d="M221.772 86.6074V88.0876H223.254V91.0486H221.772V92.5289H225.475V86.6074H221.772Z" fill="white"/>
<path d="M225.475 115.476H221.773V121.398H225.475V115.476Z" fill="white"/>
<path d="M221.772 105.853V107.333H223.254V110.294H221.772V111.775H225.475V105.853H221.772Z" fill="white"/>
<path d="M225.475 134.722H221.773V140.644H225.475V134.722Z" fill="white"/>
<path d="M221.772 125.099V126.58H223.254V129.541H221.772V131.021H225.475V125.099H221.772Z" fill="white"/>
<path d="M225.475 153.968H221.773V159.89H225.475V153.968Z" fill="white"/>
<path d="M225.475 179.136H221.773V185.058H225.475V179.136Z" fill="white"/>
<path d="M221.772 144.345V145.826H223.254V148.787H221.772V150.267H225.475V144.345H221.772Z" fill="white"/>
<path d="M221.772 189.5V190.98H223.254V193.941H221.772V195.421H225.475V189.5H221.772Z" fill="white"/>
<path d="M243.246 30.3495H239.544V36.2714H243.246V30.3495Z" fill="white"/>
<path d="M243.246 76.9841H239.544V82.906H243.246V76.9841Z" fill="white"/>
<path d="M244.727 172.474H239.544V173.214H244.727V172.474Z" fill="white"/>
<path d="M239.544 48.1153V49.5955H241.025V52.5565H239.544V54.0368H243.246V48.1153H239.544Z" fill="white"/>
<path d="M239.544 57.7379V59.2187H241.025V62.1797H239.544V63.66H243.246V57.7379H239.544Z" fill="white"/>
<path d="M239.544 67.3611V68.8418H241.025V71.8023H239.544V73.2831H243.246V67.3611H239.544Z" fill="white"/>
<path d="M243.246 96.2302H239.544V102.152H243.246V96.2302Z" fill="white"/>
<path d="M239.544 86.6074V88.0876H241.025V91.0486H239.544V92.5289H243.246V86.6074H239.544Z" fill="white"/>
<path d="M243.246 115.476H239.544V121.398H243.246V115.476Z" fill="white"/>
<path d="M239.544 105.853V107.333H241.025V110.294H239.544V111.775H243.246V105.853H239.544Z" fill="white"/>
<path d="M243.246 134.722H239.544V140.644H243.246V134.722Z" fill="white"/>
<path d="M239.544 125.099V126.58H241.025V129.541H239.544V131.021H243.246V125.099H239.544Z" fill="white"/>
<path d="M243.246 153.968H239.544V159.89H243.246V153.968Z" fill="white"/>
<path d="M243.246 179.136H239.544V185.058H243.246V179.136Z" fill="white"/>
<path d="M239.544 144.345V145.826H241.025V148.787H239.544V150.267H243.246V144.345H239.544Z" fill="white"/>
<path d="M239.544 189.5V190.98H241.025V193.941H239.544V195.421H243.246V189.5H239.544Z" fill="white"/>
<path d="M187.711 179.136V180.617H189.192V183.578H187.711V185.058H191.413V179.136H187.711Z" fill="white"/>
<path d="M187.711 188.759V190.24H189.192V193.201H187.711V194.681H191.413V188.759H187.711Z" fill="white"/>
<path d="M168.458 76.9842V78.4645H169.939V81.4255H168.458V82.9062H172.161V76.9842H168.458Z" fill="white"/>
<path d="M168.458 114.736V116.216H169.939V119.177H168.458V120.658H172.161V114.736H168.458Z" fill="white"/>
<path d="M168.458 124.359V125.84H169.939V128.801H168.458V130.281H172.161V124.359H168.458Z" fill="white"/>
<path d="M168.458 143.605V145.085H169.939V148.046H168.458V149.527H172.161V143.605H168.458Z" fill="white"/>
<path d="M168.458 170.993V172.474H169.939V175.435H168.458V176.915H172.161V170.993H168.458Z" fill="white"/>
<path d="M168.458 179.136V180.617H169.939V183.578H168.458V185.058H172.161V179.136H168.458Z" fill="white"/>
<path d="M210.665 31.83H206.963V37.7518H210.665V31.83Z" fill="white"/>
<path d="M210.665 41.453H206.963V47.3749H210.665V41.453Z" fill="white"/>
<path d="M210.665 51.8162H205.482V52.5565H210.665V51.8162Z" fill="white"/>
<path d="M210.665 99.1911H205.482V99.9313H210.665V99.1911Z" fill="white"/>
<path d="M210.665 107.334H205.482V108.074H210.665V107.334Z" fill="white"/>
<path d="M206.963 58.4785V59.9588H208.444V62.9198H206.963V64.4001H210.665V58.4785H206.963Z" fill="white"/>
<path d="M206.963 76.9842V78.4645H208.444V81.4255H206.963V82.9062H210.665V76.9842H206.963Z" fill="white"/>
<path d="M206.963 114.736V116.216H208.444V119.177H206.963V120.658H210.665V114.736H206.963Z" fill="white"/>
<path d="M252.873 96.2302H249.17V102.152H252.873V96.2302Z" fill="white"/>
<path d="M252.873 105.853H249.17V111.775H252.873V105.853Z" fill="white"/>
<path d="M252.873 116.216H247.689V116.957H252.873V116.216Z" fill="white"/>
<path d="M252.873 163.591H247.689V164.332H252.873V163.591Z" fill="white"/>
<path d="M252.873 171.734H247.689V172.474H252.873V171.734Z" fill="white"/>
<path d="M249.17 122.879V124.359H250.651V127.32H249.17V128.801H252.872V122.879H249.17Z" fill="white"/>
<path d="M249.17 141.384V142.865H250.651V145.826H249.17V147.306H252.872V141.384H249.17Z" fill="white"/>
<path d="M249.17 179.136V180.617H250.651V183.578H249.17V185.058H252.872V179.136H249.17Z" fill="white"/>
<path d="M264.72 31.83H261.018V37.7518H264.72V31.83Z" fill="white"/>
<path d="M277.308 30.3495H273.606V36.2714H277.308V30.3495Z" fill="white"/>
<path d="M283.973 30.3495H280.27V36.2714H283.973V30.3495Z" fill="white"/>
<path d="M283.973 48.1151H280.27V54.0369H283.973V48.1151Z" fill="white"/>
<path d="M291.377 39.2323H287.675V45.1542H291.377V39.2323Z" fill="white"/>
<path d="M291.377 48.8553H287.675V54.7772H291.377V48.8553Z" fill="white"/>
<path d="M283.973 67.3611H280.27V73.283H283.973V67.3611Z" fill="white"/>
<path d="M291.377 76.9841H287.675V82.906H291.377V76.9841Z" fill="white"/>
<path d="M283.973 113.256H280.27V119.177H283.973V113.256Z" fill="white"/>
<path d="M277.308 76.9841H273.606V82.906H277.308V76.9841Z" fill="white"/>
<path d="M264.72 41.453H261.018V47.3749H264.72V41.453Z" fill="white"/>
<path d="M264.72 133.982H261.018V139.904H264.72V133.982Z" fill="white"/>
<path d="M264.72 153.228H261.018V159.15H264.72V153.228Z" fill="white"/>
<path d="M264.72 162.851H261.018V168.773H264.72V162.851Z" fill="white"/>
<path d="M264.72 51.8162H259.537V52.5565H264.72V51.8162Z" fill="white"/>
<path d="M284.713 60.699H279.53V61.4393H284.713V60.699Z" fill="white"/>
<path d="M264.72 99.1911H259.537V99.9313H264.72V99.1911Z" fill="white"/>
<path d="M264.72 107.334H259.537V108.074H264.72V107.334Z" fill="white"/>
<path d="M284.713 154.708H279.53V155.449H284.713V154.708Z" fill="white"/>
<path d="M278.789 172.474H273.606V173.214H278.789V172.474Z" fill="white"/>
<path d="M261.018 58.4785V59.9588H262.499V62.9198H261.018V64.4001H264.72V58.4785H261.018Z" fill="white"/>
<path d="M273.606 48.1153V49.5955H275.087V52.5565H273.606V54.0368H277.308V48.1153H273.606Z" fill="white"/>
<path d="M287.675 57.7379V59.2187H289.156V62.1797H287.675V63.66H291.377V57.7379H287.675Z" fill="white"/>
<path d="M287.675 86.6074V88.0876H289.156V91.0486H287.675V92.5289H291.377V86.6074H287.675Z" fill="white"/>
<path d="M287.675 96.23V97.7108H289.156V100.672H287.675V102.152H291.377V96.23H287.675Z" fill="white"/>
<path d="M287.675 66.6209V68.1012H289.156V71.0622H287.675V72.543H291.377V66.6209H287.675Z" fill="white"/>
<path d="M280.27 39.2322V40.713H281.751V43.6735H280.27V45.1542H283.973V39.2322H280.27Z" fill="white"/>
<path d="M283.973 86.6072H280.27V92.529H283.973V86.6072Z" fill="white"/>
<path d="M283.973 104.373H280.27V110.295H283.973V104.373Z" fill="white"/>
<path d="M280.27 95.4899V96.9702H281.751V99.9312H280.27V101.412H283.973V95.4899H280.27Z" fill="white"/>
<path d="M273.606 57.7379V59.2187H275.087V62.1797H273.606V63.66H277.308V57.7379H273.606Z" fill="white"/>
<path d="M273.606 67.3611V68.8418H275.087V71.8023H273.606V73.2831H277.308V67.3611H273.606Z" fill="white"/>
<path d="M277.308 96.2302H273.606V102.152H277.308V96.2302Z" fill="white"/>
<path d="M273.606 86.6074V88.0876H275.087V91.0486H273.606V92.5289H277.308V86.6074H273.606Z" fill="white"/>
<path d="M277.308 115.476H273.606V121.398H277.308V115.476Z" fill="white"/>
<path d="M273.606 105.853V107.333H275.087V110.294H273.606V111.775H277.308V105.853H273.606Z" fill="white"/>
<path d="M277.308 134.722H273.606V140.644H277.308V134.722Z" fill="white"/>
<path d="M283.973 133.242H280.27V139.164H283.973V133.242Z" fill="white"/>
<path d="M273.606 125.099V126.58H275.087V129.541H273.606V131.021H277.308V125.099H273.606Z" fill="white"/>
<path d="M287.675 125.099V126.58H289.156V129.541H287.675V131.021H291.377V125.099H287.675Z" fill="white"/>
<path d="M329.142 39.2323H325.439V45.1542H329.142V39.2323Z" fill="white"/>
<path d="M329.142 48.8553H325.439V54.7772H329.142V48.8553Z" fill="white"/>
<path d="M329.142 76.9841H325.439V82.906H329.142V76.9841Z" fill="white"/>
<path d="M325.439 57.7379V59.2187H326.92V62.1797H325.439V63.66H329.142V57.7379H325.439Z" fill="white"/>
<path d="M325.439 86.6074V88.0876H326.92V91.0486H325.439V92.5289H329.142V86.6074H325.439Z" fill="white"/>
<path d="M325.439 96.23V97.7108H326.92V100.672H325.439V102.152H329.142V96.23H325.439Z" fill="white"/>
<path d="M325.439 66.6209V68.1012H326.92V71.0622H325.439V72.543H329.142V66.6209H325.439Z" fill="white"/>
<path d="M325.439 125.099V126.58H326.92V129.541H325.439V131.021H329.142V125.099H325.439Z" fill="white"/>
<path d="M277.308 153.968H273.606V159.89H277.308V153.968Z" fill="white"/>
<path d="M283.973 142.865H280.27V148.787H283.973V142.865Z" fill="white"/>
<path d="M277.308 179.136H273.606V185.058H277.308V179.136Z" fill="white"/>
<path d="M283.973 161.371H280.27V167.292H283.973V161.371Z" fill="white"/>
<path d="M273.606 144.345V145.826H275.087V148.787H273.606V150.267H277.308V144.345H273.606Z" fill="white"/>
<path d="M273.606 189.5V190.98H275.087V193.941H273.606V195.421H277.308V189.5H273.606Z" fill="white"/>
<path d="M318.034 30.3495H314.332V36.2714H318.034V30.3495Z" fill="white"/>
<path d="M318.034 76.9841H314.332V82.906H318.034V76.9841Z" fill="white"/>
<path d="M319.515 172.474H314.332V173.214H319.515V172.474Z" fill="white"/>
<path d="M314.332 48.1153V49.5955H315.813V52.5565H314.332V54.0368H318.035V48.1153H314.332Z" fill="white"/>
<path d="M314.332 57.7379V59.2187H315.813V62.1797H314.332V63.66H318.035V57.7379H314.332Z" fill="white"/>
<path d="M314.332 67.3611V68.8418H315.813V71.8023H314.332V73.2831H318.035V67.3611H314.332Z" fill="white"/>
<path d="M318.034 96.2302H314.332V102.152H318.034V96.2302Z" fill="white"/>
<path d="M314.332 86.6074V88.0876H315.813V91.0486H314.332V92.5289H318.035V86.6074H314.332Z" fill="white"/>
<path d="M318.034 115.476H314.332V121.398H318.034V115.476Z" fill="white"/>
<path d="M314.332 105.853V107.333H315.813V110.294H314.332V111.775H318.035V105.853H314.332Z" fill="white"/>
<path d="M318.034 134.722H314.332V140.644H318.034V134.722Z" fill="white"/>
<path d="M314.332 125.099V126.58H315.813V129.541H314.332V131.021H318.035V125.099H314.332Z" fill="white"/>
<path d="M318.034 153.968H314.332V159.89H318.034V153.968Z" fill="white"/>
<path d="M318.034 179.136H314.332V185.058H318.034V179.136Z" fill="white"/>
<path d="M314.332 144.345V145.826H315.813V148.787H314.332V150.267H318.035V144.345H314.332Z" fill="white"/>
<path d="M314.332 189.5V190.98H315.813V193.941H314.332V195.421H318.035V189.5H314.332Z" fill="white"/>
<path d="M335.806 30.3495H332.103V36.2714H335.806V30.3495Z" fill="white"/>
<path d="M335.806 76.9841H332.103V82.906H335.806V76.9841Z" fill="white"/>
<path d="M337.287 172.474H332.103V173.214H337.287V172.474Z" fill="white"/>
<path d="M332.104 48.1153V49.5955H333.584V52.5565H332.104V54.0368H335.806V48.1153H332.104Z" fill="white"/>
<path d="M332.104 57.7379V59.2187H333.584V62.1797H332.104V63.66H335.806V57.7379H332.104Z" fill="white"/>
<path d="M332.104 67.3611V68.8418H333.584V71.8023H332.104V73.2831H335.806V67.3611H332.104Z" fill="white"/>
<path d="M335.806 96.2302H332.103V102.152H335.806V96.2302Z" fill="white"/>
<path d="M332.104 86.6074V88.0876H333.584V91.0486H332.104V92.5289H335.806V86.6074H332.104Z" fill="white"/>
<path d="M335.806 115.476H332.103V121.398H335.806V115.476Z" fill="white"/>
<path d="M332.104 105.853V107.333H333.584V110.294H332.104V111.775H335.806V105.853H332.104Z" fill="white"/>
<path d="M335.806 134.722H332.103V140.644H335.806V134.722Z" fill="white"/>
<path d="M332.104 125.099V126.58H333.584V129.541H332.104V131.021H335.806V125.099H332.104Z" fill="white"/>
<path d="M335.806 153.968H332.103V159.89H335.806V153.968Z" fill="white"/>
<path d="M335.806 179.136H332.103V185.058H335.806V179.136Z" fill="white"/>
<path d="M332.104 144.345V145.826H333.584V148.787H332.104V150.267H335.806V144.345H332.104Z" fill="white"/>
<path d="M332.104 189.5V190.98H333.584V193.941H332.104V195.421H335.806V189.5H332.104Z" fill="white"/>
<path d="M280.27 179.136V180.617H281.751V183.578H280.27V185.058H283.973V179.136H280.27Z" fill="white"/>
<path d="M280.27 188.759V190.24H281.751V193.201H280.27V194.681H283.973V188.759H280.27Z" fill="white"/>
<path d="M261.018 76.9842V78.4645H262.499V81.4255H261.018V82.9062H264.72V76.9842H261.018Z" fill="white"/>
<path d="M261.018 114.736V116.216H262.499V119.177H261.018V120.658H264.72V114.736H261.018Z" fill="white"/>
<path d="M261.018 124.359V125.84H262.499V128.801H261.018V130.281H264.72V124.359H261.018Z" fill="white"/>
<path d="M261.018 143.605V145.085H262.499V148.046H261.018V149.527H264.72V143.605H261.018Z" fill="white"/>
<path d="M261.018 170.993V172.474H262.499V175.435H261.018V176.915H264.72V170.993H261.018Z" fill="white"/>
<path d="M261.018 179.136V180.617H262.499V183.578H261.018V185.058H264.72V179.136H261.018Z" fill="white"/>
<path d="M303.225 31.83H299.523V37.7518H303.225V31.83Z" fill="white"/>
<path d="M303.225 41.453H299.523V47.3749H303.225V41.453Z" fill="white"/>
<path d="M303.225 51.8162H298.042V52.5565H303.225V51.8162Z" fill="white"/>
<path d="M303.225 99.1911H298.042V99.9313H303.225V99.1911Z" fill="white"/>
<path d="M303.225 107.334H298.042V108.074H303.225V107.334Z" fill="white"/>
<path d="M299.522 58.4785V59.9588H301.004V62.9198H299.522V64.4001H303.225V58.4785H299.522Z" fill="white"/>
<path d="M299.522 76.9842V78.4645H301.004V81.4255H299.522V82.9062H303.225V76.9842H299.522Z" fill="white"/>
<path d="M299.522 114.736V116.216H301.004V119.177H299.522V120.658H303.225V114.736H299.522Z" fill="white"/>
<path d="M345.432 96.2302H341.73V102.152H345.432V96.2302Z" fill="white"/>
<path d="M345.432 105.853H341.73V111.775H345.432V105.853Z" fill="white"/>
<path d="M345.432 116.216H340.249V116.957H345.432V116.216Z" fill="white"/>
<path d="M345.432 163.591H340.249V164.332H345.432V163.591Z" fill="white"/>
<path d="M345.432 171.734H340.249V172.474H345.432V171.734Z" fill="white"/>
<path d="M341.729 122.879V124.359H343.211V127.32H341.729V128.801H345.432V122.879H341.729Z" fill="white"/>
<path d="M341.729 141.384V142.865H343.211V145.826H341.729V147.306H345.432V141.384H341.729Z" fill="white"/>
<path d="M341.729 179.136V180.617H343.211V183.578H341.729V185.058H345.432V179.136H341.729Z" fill="white"/>
<path d="M500 338.904H102.892V340.129H500V338.904Z" fill="#007BFE"/>
<path d="M184.974 193.95V218.893L188.333 234.242C188.333 234.242 187.853 243.835 188.333 246.713C188.812 249.591 187.853 254.388 184.974 254.388C182.095 254.388 180.655 261.583 180.655 261.583C180.655 261.583 179.696 264.461 177.297 264.941C174.897 265.421 174.897 264.941 174.897 264.941L172.978 269.738L133.152 296.119L140.83 315.306C140.83 315.306 152.825 310.989 153.785 309.55C154.745 308.111 162.902 311.469 162.902 308.111C162.902 304.754 164.341 296.119 167.22 295.64C170.099 295.16 194.091 284.128 194.091 284.128C194.091 284.128 206.566 270.217 207.526 264.941C208.485 259.665 212.804 244.795 212.804 244.795L224.8 264.941V305.233L222.88 326.818L243.993 323.94C243.993 323.94 242.073 310.51 243.993 308.591C245.912 306.672 248.791 283.648 246.872 280.77C244.952 277.892 247.831 264.941 246.872 263.022C245.912 261.104 246.392 247.193 243.993 243.356C241.594 239.518 227.199 200.185 227.199 200.185L184.974 193.95Z" fill="#171717"/>
<path d="M225.759 325.859C225.759 325.859 218.562 337.851 223.36 339.29C228.158 340.729 237.275 339.29 238.235 339.29C239.195 339.29 256.468 339.769 256.468 339.769C256.468 339.769 267.984 337.371 267.984 334.013C267.984 330.656 260.787 330.656 258.388 330.176C255.988 329.696 241.114 323.94 241.114 323.94L225.759 325.859Z" fill="#171717"/>
<path d="M135.356 296.661C135.356 296.661 121.488 294.825 122.074 299.798C122.66 304.772 127.605 312.563 127.986 313.443C128.245 314.039 131.275 321.587 133.205 326.397C134.599 329.923 136.694 333.13 139.363 335.823C141.25 337.708 143.306 339.219 144.654 338.635C147.736 337.301 144.875 330.698 144.362 328.307C143.849 325.916 143.22 309.983 143.22 309.983L135.356 296.661Z" fill="#171717"/>
<path d="M231.757 114.564L247.112 79.0686C247.112 79.0686 245.672 75.7109 242.313 76.1906C242.313 76.1906 237.755 64.4387 229.118 64.4387C229.118 64.4387 216.163 57.2436 212.324 64.4387C212.324 64.4387 204.167 71.6337 204.647 78.3491C205.127 85.0645 205.607 89.8612 205.607 89.8612C205.607 89.8612 197.929 90.8205 199.369 94.6579C200.808 98.4953 201.288 98.4953 199.369 99.9343L197.449 101.373C197.449 101.373 157.624 137.349 179.696 190.112L181.615 198.267V205.941C181.615 205.941 230.078 206.421 230.078 205.941C230.078 205.462 229.118 202.584 231.037 200.665C232.957 198.746 232.957 195.868 232.957 195.868C232.957 195.868 231.037 186.275 231.997 183.397C232.957 180.519 233.437 168.047 231.517 165.169C229.598 162.291 230.558 139.267 230.558 139.267L234.876 131.113L233.437 126.316L231.997 121.519L231.757 114.564Z" fill="#FF911C"/>
<path opacity="0.1" d="M227.679 210.738C227.679 210.738 221.921 194.909 222.401 192.031C222.88 189.153 221.441 183.397 221.441 183.397L219.522 144.544C219.522 144.544 227.679 110.007 209.445 104.251C209.445 104.251 204.831 106.264 201.051 112.74C197.313 114.405 192.777 118.617 191.691 129.194C189.772 147.901 198.409 195.868 202.728 204.023C207.046 212.177 209.925 217.933 209.925 217.933L214.438 215.928C214.625 216.297 214.723 216.494 214.723 216.494L227.679 210.738Z" fill="black"/>
<path d="M230.318 110.247C231.113 110.247 231.757 109.603 231.757 108.808C231.757 108.013 231.113 107.369 230.318 107.369C229.523 107.369 228.878 108.013 228.878 108.808C228.878 109.603 229.523 110.247 230.318 110.247Z" fill="#F2F2F2"/>
<path d="M230.797 108.808H229.838V131.353H230.797V108.808Z" fill="#007BFE"/>
<path d="M213.044 212.417L216.882 220.571C216.882 220.571 225.519 217.693 225.519 216.254C225.519 214.815 221.681 208.58 221.681 208.58L213.044 212.417Z" fill="#FFB8B8"/>
<path d="M207.526 104.251C207.526 104.251 196.49 109.048 194.57 127.755C192.651 146.462 201.288 194.429 205.606 202.584C209.925 210.738 212.804 216.494 212.804 216.494L225.759 210.738C225.759 210.738 220.001 194.909 220.481 192.031C220.961 189.153 219.522 183.397 219.522 183.397L217.602 144.544C217.602 144.544 225.759 110.007 207.526 104.251Z" fill="#FF911C"/>
</g>
<defs>
<clipPath id="clip0">
<rect width="500" height="340.129" fill="white"/>
</clipPath>
</defs>
</svg>
